<?xml version="1.0" encoding="UTF-8" standalone="no"?>
<svg width="1280px" height="37px" viewBox="0 0 1280 37" version="1.1" xmlns="http://www.w3.org/2000/svg" xmlns:xlink="http://www.w3.org/1999/xlink">
    <!-- Generator: Sketch 39.1 (31720) - http://www.bohemiancoding.com/sketch -->
    <title>Top_wave</title>
    <desc>Created with Sketch.</desc>
    <defs></defs>
    <g id="Page-1" stroke="none" stroke-width="1" fill="none" fill-rule="evenodd">
        <g id="Panoramic" transform="translate(0.000000, -813.000000)" fill="#23A9B9">
            <path d="M1849.53528,817.888891 L1849.53528,817.888891 C1841.57529,812.620916 1830.83604,812.620916 1822.87606,817.888891 C1814.83906,823.207956 1803.99572,823.207956 1795.95872,817.888891 C1787.99874,812.620916 1777.2593,812.620916 1769.29951,817.888891 L1769.29932,817.888891 C1761.26232,823.207956 1750.41898,823.207956 1742.38198,817.888891 C1734.422,812.620916 1723.68274,812.620916 1715.72276,817.888891 C1707.68577,823.207956 1696.84243,823.207956 1688.80543,817.888891 L1688.80524,817.888891 C1680.84526,812.620916 1670.106,812.620916 1662.14602,817.888891 C1654.10902,823.207956 1643.26568,823.207956 1635.22868,817.888891 C1627.2687,812.620916 1616.52945,812.620916 1608.56947,817.888891 L1608.56928,817.888891 C1600.53228,823.207956 1589.68894,823.207956 1581.65194,817.888891 C1573.69196,812.620916 1562.95271,812.620916 1554.99273,817.888891 C1546.95573,823.207956 1536.11239,823.207956 1528.0752,817.888891 C1520.11522,812.620916 1509.37596,812.620916 1501.41598,817.888891 C1493.37899,823.207956 1482.53564,823.207956 1474.49865,817.888891 C1466.53867,812.620916 1455.79922,812.620916 1447.83924,817.888891 C1439.80224,823.207956 1428.9589,823.207956 1420.9219,817.888891 C1412.96192,812.620916 1402.22267,812.620916 1394.26269,817.888891 C1386.2255,823.207956 1375.38216,823.207956 1367.34516,817.888891 C1359.38518,812.620916 1348.64593,812.620916 1340.68594,817.888891 C1332.64895,823.207956 1321.80561,823.207956 1313.76861,817.888891 L1312.60421,817.118349 C1305.33947,812.310374 1295.53834,812.310374 1288.2736,817.118349 L1288.2736,817.118349 C1279.54117,822.897604 1267.7599,822.897604 1259.02765,817.118349 L1259.02765,817.118349 C1251.76273,812.310374 1241.96159,812.310374 1234.69705,817.118349 L1234.69705,817.118349 C1225.96461,822.897604 1214.18316,822.897604 1205.45091,817.118349 L1205.45091,817.118349 C1197.79271,813.289279 1188.7787,813.289279 1181.12031,817.118349 L1181.12031,817.118349 C1172.53676,822.799237 1160.9711,822.851089 1152.32731,817.247408 L1152.32731,817.247408 C1144.77738,812.353076 1134.67542,812.398256 1127.17812,817.360264 C1118.81323,822.896269 1107.54229,822.946787 1099.11868,817.485891 L1099.11868,817.485891 C1091.34857,812.448774 1080.95208,812.495479 1073.23612,817.601987 L1073.23612,817.601987 C1065.08969,822.993493 1054.11329,823.042676 1045.91006,817.724565 L1043.35459,816.067957 C1036.91188,811.891361 1028.27495,811.98725 1021.94414,816.306059 L1014.56979,821.336694 C1009.64358,824.596914 1002.99765,824.596914 998.07163,821.336694 L994.317065,818.851973 C985.488168,813.008856 973.576506,813.008856 964.747609,818.851973 C957.579528,823.595896 947.908595,823.595896 940.740322,818.851973 L939.945563,818.325824 C931.591349,812.796872 920.320031,812.796872 911.965625,818.325824 C904.322862,823.383911 894.011584,823.383911 886.369011,818.325824 L886.36882,818.325824 C878.014606,812.796872 866.743288,812.796872 858.389073,818.325824 L853.810392,821.356139 C848.901912,824.60473 842.279429,824.60473 837.370758,821.356139 L837.370758,821.355948 C826.28226,814.0175 811.322147,814.0175 800.23384,821.355948 L800.23384,821.356139 C795.325169,824.60473 788.702686,824.60473 783.794015,821.356139 L778.734171,818.007465 C770.667434,812.668575 759.783869,812.668575 751.716941,818.007465 L751.716941,818.007465 C744.413127,825.311219 732.461432,825.311219 725.157618,818.007465 L725.157618,818.007465 C717.090691,812.668575 706.207126,812.668575 698.140198,818.007465 L695.766025,819.578669 C689.253539,823.888709 680.467535,823.888709 673.955048,819.578669 C664.470366,813.30167 651.673965,813.30167 642.189282,819.578669 L642.189282,819.578669 C635.676986,823.888709 626.890792,823.888709 620.378496,819.578669 L619.65351,819.098844 C610.60176,813.108367 598.389275,813.108367 589.337525,819.098844 L589.337525,819.098844 C582.392297,823.695406 573.021995,823.695406 566.076767,819.098844 C557.025017,813.108367 544.812723,813.108367 535.760782,819.098844 C528.815554,823.695406 519.445252,823.695406 512.500214,819.098844 L512.500024,819.098844 C503.448274,813.108367 491.23598,813.108367 482.18423,819.098844 C475.239001,823.695406 465.8687,823.695406 458.923471,819.098844 C449.871531,813.108367 437.659237,813.108367 428.607487,819.098844 L427.962758,819.525673 C421.402422,823.867358 412.551793,823.867358 405.991457,819.525673 L405.991457,819.525482 C396.554624,813.280128 383.822848,813.280128 374.386206,819.525482 L374.386206,819.525673 C367.82587,823.867358 358.97505,823.867358 352.414714,819.525673 L349.597885,817.661274 C341.724644,812.450681 331.499533,812.450681 323.626291,817.661274 L323.282385,817.888891 C315.245387,823.207956 304.402046,823.207956 296.365049,817.888891 C288.405068,812.620916 277.665623,812.620916 269.705833,817.888891 L269.705833,817.888891 C261.668644,823.207956 250.825303,823.207956 242.788306,817.888891 L242.788306,817.888891 C234.828325,812.620916 224.08907,812.620916 216.12909,817.888891 L216.12909,817.888891 C208.092092,823.207956 197.248751,823.207956 189.211563,817.888891 L189.211563,817.888891 C181.251582,812.620916 170.512327,812.620916 162.552347,817.888891 L162.552347,817.888891 C154.515349,823.207956 143.672008,823.207956 135.63501,817.888891 L135.63482,817.888891 C127.675029,812.620916 116.935775,812.620916 108.975604,817.888891 C100.938606,823.207956 90.0952648,823.207956 82.0582672,817.888891 C74.0982863,812.620916 63.359032,812.620916 55.3990512,817.888891 C47.3620536,823.207956 36.5185217,823.207956 28.4815242,817.888891 C20.5215433,812.620916 9.782289,812.620916 1.82230813,817.888891 C-6.21468945,823.207956 -17.0580307,823.207956 -25.0950282,817.888891 C-33.0551997,812.620916 -43.794454,812.620916 -51.7544349,817.888891 L-51.7544349,817.888891 C-59.7914325,823.207956 -70.6347737,823.207956 -78.6717713,817.888891 L-78.6717713,817.888891 C-86.6317521,812.620916 -97.3710064,812.620916 -105.330987,817.888891 L-105.330987,817.888891 C-113.368176,823.207956 -124.211517,823.207956 -132.248514,817.888891 L-132.248514,817.888891 C-140.208495,812.620916 -150.947749,812.620916 -158.90773,817.888891 L-158.90773,817.888891 C-166.944728,823.207956 -177.788069,823.207956 -185.825257,817.888891 L-185.825257,817.888891 C-193.785238,812.620916 -204.524492,812.620916 -212.484473,817.888891 C-220.521471,823.207956 -231.364812,823.207956 -239.40181,817.888891 L-240.566211,817.118349 C-247.830944,812.310374 -257.632082,812.310374 -264.896625,817.118349 L-264.896815,817.118349 C-273.62906,822.897604 -285.410328,822.897604 -294.142763,817.118349 L-294.142763,817.118349 C-301.407687,812.310374 -311.208825,812.310374 -318.473368,817.118349 L-318.473368,817.118349 C-327.205803,822.897604 -338.987071,822.897604 -347.719506,817.118349 L-347.719506,817.118349 C-354.98424,812.310374 -364.785568,812.310374 -372.050111,817.118349 L-372.050111,817.118349 C-380.63366,822.799237 -392.199319,822.851089 -400.843109,817.247408 L-400.843109,817.247408 C-408.393033,812.353076 -418.494802,812.398256 -425.992302,817.360264 C-430.174652,820.128267 -435.083704,821.52485 -440,821.546963 L-440,1054.98474 L1864.99981,1054.98474 L1865,821.546963 C1865,821.546963 1857.57246,823.207956 1849.53528,817.888891" id="Top_wave"></path>
        </g>
    </g>
</svg>