<?xml version="1.0" encoding="UTF-8" standalone="no"?>
<svg width="2305px" height="243px" viewBox="0 0 2305 243" version="1.1" xmlns="http://www.w3.org/2000/svg" xmlns:xlink="http://www.w3.org/1999/xlink">
    <!-- Generator: Sketch 39.1 (31720) - http://www.bohemiancoding.com/sketch -->
    <title>Page 1 Copy 7</title>
    <desc>Created with Sketch.</desc>
    <defs></defs>
    <g id="Page-1" stroke="none" stroke-width="1" fill="none" fill-rule="evenodd">
        <g id="Water" transform="translate(0.000000, -43.000000)" fill="#27BDC8">
            <path d="M2289.53528,48.107282 L2289.53528,48.107282 C2281.57529,42.8393073 2270.83604,42.8393073 2262.87606,48.107282 C2254.83906,53.4263465 2243.99572,53.4263465 2235.95872,48.107282 C2227.99874,42.8393073 2217.2593,42.8393073 2209.29951,48.107282 L2209.29932,48.107282 C2201.26232,53.4263465 2190.41898,53.4263465 2182.38198,48.107282 C2174.422,42.8393073 2163.68274,42.8393073 2155.72276,48.107282 C2147.68577,53.4263465 2136.84243,53.4263465 2128.80543,48.107282 L2128.80524,48.107282 C2120.84526,42.8393073 2110.106,42.8393073 2102.14602,48.107282 C2094.10902,53.4263465 2083.26568,53.4263465 2075.22868,48.107282 C2067.2687,42.8393073 2056.52945,42.8393073 2048.56947,48.107282 L2048.56928,48.107282 C2040.53228,53.4263465 2029.68894,53.4263465 2021.65194,48.107282 C2013.69196,42.8393073 2002.95271,42.8393073 1994.99273,48.107282 C1986.95573,53.4263465 1976.11239,53.4263465 1968.0752,48.107282 C1960.11522,42.8393073 1949.37596,42.8393073 1941.41598,48.107282 C1933.37899,53.4263465 1922.53564,53.4263465 1914.49865,48.107282 C1906.53867,42.8393073 1895.79922,42.8393073 1887.83924,48.107282 C1879.80224,53.4263465 1868.9589,53.4263465 1860.9219,48.107282 C1852.96192,42.8393073 1842.22267,42.8393073 1834.26269,48.107282 C1826.2255,53.4263465 1815.38216,53.4263465 1807.34516,48.107282 C1799.38518,42.8393073 1788.64593,42.8393073 1780.68594,48.107282 C1772.64895,53.4263465 1761.80561,53.4263465 1753.76861,48.107282 L1752.60421,47.3367401 C1745.33947,42.5287648 1735.53834,42.5287648 1728.2736,47.3367401 L1728.2736,47.3367401 C1719.54117,53.1159947 1707.7599,53.1159947 1699.02765,47.3367401 L1699.02765,47.3367401 C1691.76273,42.5287648 1681.96159,42.5287648 1674.69705,47.3367401 L1674.69705,47.3367401 C1665.96461,53.1159947 1654.18316,53.1159947 1645.45091,47.3367401 L1645.45091,47.3367401 C1637.79271,43.5076694 1628.7787,43.5076694 1621.12031,47.3367401 L1621.12031,47.3367401 C1612.53676,53.0176277 1600.9711,53.0694801 1592.32731,47.4657992 L1592.32731,47.4657992 C1584.77738,42.5714668 1574.67542,42.616647 1567.17812,47.5786544 C1558.81323,53.1146603 1547.54229,53.1651782 1539.11868,47.7042821 L1539.11868,47.7042821 C1531.34857,42.667165 1520.95208,42.7138703 1513.23612,47.8203781 L1513.23612,47.8203781 C1505.08969,53.2118835 1494.11329,53.261067 1485.91006,47.9429556 L1483.35459,46.2863478 C1476.91188,42.1097517 1468.27495,42.2056405 1461.94414,46.5244495 L1454.56979,51.5550851 C1449.64358,54.8153045 1442.99765,54.8153045 1438.07163,51.5550851 L1434.31707,49.070364 C1425.48817,43.2272471 1413.57651,43.2272471 1404.74761,49.070364 C1397.57953,53.8142864 1387.90859,53.8142864 1380.74032,49.070364 L1379.94556,48.5442147 C1371.59135,43.0152623 1360.32003,43.0152623 1351.96563,48.5442147 C1344.32286,53.6023016 1334.01158,53.6023016 1326.36901,48.5442147 L1326.36882,48.5442147 C1318.01461,43.0152623 1306.74329,43.0152623 1298.38907,48.5442147 L1293.81039,51.5745297 C1288.90191,54.8231205 1282.27943,54.8231205 1277.37076,51.5745297 L1277.37076,51.5743391 C1266.28226,44.2358906 1251.32215,44.2358906 1240.23384,51.5743391 L1240.23384,51.5745297 C1235.32517,54.8231205 1228.70269,54.8231205 1223.79402,51.5745297 L1218.73417,48.2258562 C1210.66743,42.8869658 1199.78387,42.8869658 1191.71694,48.2258562 L1191.71694,48.2258562 C1184.41313,55.5296094 1172.46143,55.5296094 1165.15762,48.2258562 L1165.15762,48.2258562 C1157.09069,42.8869658 1146.20713,42.8869658 1138.1402,48.2258562 L1135.76603,49.7970601 C1129.25354,54.1070999 1120.46753,54.1070999 1113.95505,49.7970601 C1104.47037,43.5200606 1091.67396,43.5200606 1082.18928,49.7970601 L1082.18928,49.7970601 C1075.67699,54.1070999 1066.89079,54.1070999 1060.3785,49.7970601 L1059.65351,49.3172348 C1050.60176,43.326758 1038.38928,43.326758 1029.33753,49.3172348 L1029.33753,49.3172348 C1022.3923,53.9137972 1013.022,53.9137972 1006.07677,49.3172348 C997.025017,43.326758 984.812723,43.326758 975.760782,49.3172348 C968.815554,53.9137972 959.445252,53.9137972 952.500214,49.3172348 L952.500024,49.3172348 C943.448274,43.326758 931.23598,43.326758 922.18423,49.3172348 C915.239001,53.9137972 905.8687,53.9137972 898.923471,49.3172348 C889.871531,43.326758 877.659237,43.326758 868.607487,49.3172348 L867.962758,49.7440639 C861.402422,54.0857489 852.551793,54.0857489 845.991457,49.7440639 L845.991457,49.7438732 C836.554624,43.498519 823.822848,43.498519 814.386206,49.7438732 L814.386206,49.7440639 C807.82587,54.0857489 798.97505,54.0857489 792.414714,49.7440639 L789.597885,47.8796652 C781.724644,42.6690713 771.499533,42.6690713 763.626291,47.8796652 L763.282385,48.107282 C755.245387,53.4263465 744.402046,53.4263465 736.365049,48.107282 C728.405068,42.8393073 717.665623,42.8393073 709.705833,48.107282 L709.705833,48.107282 C701.668644,53.4263465 690.825303,53.4263465 682.788306,48.107282 L682.788306,48.107282 C674.828325,42.8393073 664.08907,42.8393073 656.12909,48.107282 L656.12909,48.107282 C648.092092,53.4263465 637.248751,53.4263465 629.211563,48.107282 L629.211563,48.107282 C621.251582,42.8393073 610.512327,42.8393073 602.552347,48.107282 L602.552347,48.107282 C594.515349,53.4263465 583.672008,53.4263465 575.63501,48.107282 L575.63482,48.107282 C567.675029,42.8393073 556.935775,42.8393073 548.975604,48.107282 C540.938606,53.4263465 530.095265,53.4263465 522.058267,48.107282 C514.098286,42.8393073 503.359032,42.8393073 495.399051,48.107282 C487.362054,53.4263465 476.518522,53.4263465 468.481524,48.107282 C460.521543,42.8393073 449.782289,42.8393073 441.822308,48.107282 C433.785311,53.4263465 422.941969,53.4263465 414.904972,48.107282 C406.9448,42.8393073 396.205546,42.8393073 388.245565,48.107282 L388.245565,48.107282 C380.208568,53.4263465 369.365226,53.4263465 361.328229,48.107282 L361.328229,48.107282 C353.368248,42.8393073 342.628994,42.8393073 334.669013,48.107282 L334.669013,48.107282 C326.631824,53.4263465 315.788483,53.4263465 307.751486,48.107282 L307.751486,48.107282 C299.791505,42.8393073 289.052251,42.8393073 281.09227,48.107282 L281.09227,48.107282 C273.055272,53.4263465 262.211931,53.4263465 254.174743,48.107282 L254.174743,48.107282 C246.214762,42.8393073 235.475508,42.8393073 227.515527,48.107282 C219.478529,53.4263465 208.635188,53.4263465 200.59819,48.107282 L199.433789,47.3367401 C192.169056,42.5287648 182.367918,42.5287648 175.103375,47.3367401 L175.103185,47.3367401 C166.37094,53.1159947 154.589672,53.1159947 145.857237,47.3367401 L145.857237,47.3367401 C138.592313,42.5287648 128.791175,42.5287648 121.526632,47.3367401 L121.526632,47.3367401 C112.794197,53.1159947 101.012929,53.1159947 92.2804939,47.3367401 L92.2804939,47.3367401 C85.0157603,42.5287648 75.2144321,42.5287648 67.9498892,47.3367401 L67.9498892,47.3367401 C59.3663399,53.0176277 47.8006812,53.0694801 39.1568912,47.4657992 L39.1568912,47.4657992 C31.606967,42.5714668 21.5051975,42.616647 14.0076981,47.5786544 C9.82534821,50.3466574 4.91629618,51.7432406 0,51.7653542 L0,285.203126 L2304.99981,285.203126 L2305,51.7653542 C2305,51.7653542 2297.57246,53.4263465 2289.53528,48.107282" id="Page-1-Copy-7"></path>
        </g>
    </g>
</svg>