<?xml version="1.0" encoding="UTF-8" standalone="no"?>
<svg width="2305px" height="242px" viewBox="0 0 2305 242" version="1.1" xmlns="http://www.w3.org/2000/svg" xmlns:xlink="http://www.w3.org/1999/xlink">
    <!-- Generator: Sketch 39.1 (31720) - http://www.bohemiancoding.com/sketch -->
    <title>Page 1 Copy 6</title>
    <desc>Created with Sketch.</desc>
    <defs></defs>
    <g id="Page-1" stroke="none" stroke-width="1" fill="none" fill-rule="evenodd">
        <g id="Water" transform="translate(0.000000, -121.000000)" fill="#24B8C7">
            <path d="M2289.53528,125.888891 L2289.53528,125.888891 C2281.57529,120.620916 2270.83604,120.620916 2262.87606,125.888891 C2254.83906,131.207956 2243.99572,131.207956 2235.95872,125.888891 C2227.99874,120.620916 2217.2593,120.620916 2209.29951,125.888891 L2209.29932,125.888891 C2201.26232,131.207956 2190.41898,131.207956 2182.38198,125.888891 C2174.422,120.620916 2163.68274,120.620916 2155.72276,125.888891 C2147.68577,131.207956 2136.84243,131.207956 2128.80543,125.888891 L2128.80524,125.888891 C2120.84526,120.620916 2110.106,120.620916 2102.14602,125.888891 C2094.10902,131.207956 2083.26568,131.207956 2075.22868,125.888891 C2067.2687,120.620916 2056.52945,120.620916 2048.56947,125.888891 L2048.56928,125.888891 C2040.53228,131.207956 2029.68894,131.207956 2021.65194,125.888891 C2013.69196,120.620916 2002.95271,120.620916 1994.99273,125.888891 C1986.95573,131.207956 1976.11239,131.207956 1968.0752,125.888891 C1960.11522,120.620916 1949.37596,120.620916 1941.41598,125.888891 C1933.37899,131.207956 1922.53564,131.207956 1914.49865,125.888891 C1906.53867,120.620916 1895.79922,120.620916 1887.83924,125.888891 C1879.80224,131.207956 1868.9589,131.207956 1860.9219,125.888891 C1852.96192,120.620916 1842.22267,120.620916 1834.26269,125.888891 C1826.2255,131.207956 1815.38216,131.207956 1807.34516,125.888891 C1799.38518,120.620916 1788.64593,120.620916 1780.68594,125.888891 C1772.64895,131.207956 1761.80561,131.207956 1753.76861,125.888891 L1752.60421,125.118349 C1745.33947,120.310374 1735.53834,120.310374 1728.2736,125.118349 L1728.2736,125.118349 C1719.54117,130.897604 1707.7599,130.897604 1699.02765,125.118349 L1699.02765,125.118349 C1691.76273,120.310374 1681.96159,120.310374 1674.69705,125.118349 L1674.69705,125.118349 C1665.96461,130.897604 1654.18316,130.897604 1645.45091,125.118349 L1645.45091,125.118349 C1637.79271,121.289279 1628.7787,121.289279 1621.12031,125.118349 L1621.12031,125.118349 C1612.53676,130.799237 1600.9711,130.851089 1592.32731,125.247408 L1592.32731,125.247408 C1584.77738,120.353076 1574.67542,120.398256 1567.17812,125.360264 C1558.81323,130.896269 1547.54229,130.946787 1539.11868,125.485891 L1539.11868,125.485891 C1531.34857,120.448774 1520.95208,120.495479 1513.23612,125.601987 L1513.23612,125.601987 C1505.08969,130.993493 1494.11329,131.042676 1485.91006,125.724565 L1483.35459,124.067957 C1476.91188,119.891361 1468.27495,119.98725 1461.94414,124.306059 L1454.56979,129.336694 C1449.64358,132.596914 1442.99765,132.596914 1438.07163,129.336694 L1434.31707,126.851973 C1425.48817,121.008856 1413.57651,121.008856 1404.74761,126.851973 C1397.57953,131.595896 1387.90859,131.595896 1380.74032,126.851973 L1379.94556,126.325824 C1371.59135,120.796872 1360.32003,120.796872 1351.96563,126.325824 C1344.32286,131.383911 1334.01158,131.383911 1326.36901,126.325824 L1326.36882,126.325824 C1318.01461,120.796872 1306.74329,120.796872 1298.38907,126.325824 L1293.81039,129.356139 C1288.90191,132.60473 1282.27943,132.60473 1277.37076,129.356139 L1277.37076,129.355948 C1266.28226,122.0175 1251.32215,122.0175 1240.23384,129.355948 L1240.23384,129.356139 C1235.32517,132.60473 1228.70269,132.60473 1223.79402,129.356139 L1218.73417,126.007465 C1210.66743,120.668575 1199.78387,120.668575 1191.71694,126.007465 L1191.71694,126.007465 C1184.41313,133.311219 1172.46143,133.311219 1165.15762,126.007465 L1165.15762,126.007465 C1157.09069,120.668575 1146.20713,120.668575 1138.1402,126.007465 L1135.76603,127.578669 C1129.25354,131.888709 1120.46753,131.888709 1113.95505,127.578669 C1104.47037,121.30167 1091.67396,121.30167 1082.18928,127.578669 L1082.18928,127.578669 C1075.67699,131.888709 1066.89079,131.888709 1060.3785,127.578669 L1059.65351,127.098844 C1050.60176,121.108367 1038.38928,121.108367 1029.33753,127.098844 L1029.33753,127.098844 C1022.3923,131.695406 1013.022,131.695406 1006.07677,127.098844 C997.025017,121.108367 984.812723,121.108367 975.760782,127.098844 C968.815554,131.695406 959.445252,131.695406 952.500214,127.098844 L952.500024,127.098844 C943.448274,121.108367 931.23598,121.108367 922.18423,127.098844 C915.239001,131.695406 905.8687,131.695406 898.923471,127.098844 C889.871531,121.108367 877.659237,121.108367 868.607487,127.098844 L867.962758,127.525673 C861.402422,131.867358 852.551793,131.867358 845.991457,127.525673 L845.991457,127.525482 C836.554624,121.280128 823.822848,121.280128 814.386206,127.525482 L814.386206,127.525673 C807.82587,131.867358 798.97505,131.867358 792.414714,127.525673 L789.597885,125.661274 C781.724644,120.450681 771.499533,120.450681 763.626291,125.661274 L763.282385,125.888891 C755.245387,131.207956 744.402046,131.207956 736.365049,125.888891 C728.405068,120.620916 717.665623,120.620916 709.705833,125.888891 L709.705833,125.888891 C701.668644,131.207956 690.825303,131.207956 682.788306,125.888891 L682.788306,125.888891 C674.828325,120.620916 664.08907,120.620916 656.12909,125.888891 L656.12909,125.888891 C648.092092,131.207956 637.248751,131.207956 629.211563,125.888891 L629.211563,125.888891 C621.251582,120.620916 610.512327,120.620916 602.552347,125.888891 L602.552347,125.888891 C594.515349,131.207956 583.672008,131.207956 575.63501,125.888891 L575.63482,125.888891 C567.675029,120.620916 556.935775,120.620916 548.975604,125.888891 C540.938606,131.207956 530.095265,131.207956 522.058267,125.888891 C514.098286,120.620916 503.359032,120.620916 495.399051,125.888891 C487.362054,131.207956 476.518522,131.207956 468.481524,125.888891 C460.521543,120.620916 449.782289,120.620916 441.822308,125.888891 C433.785311,131.207956 422.941969,131.207956 414.904972,125.888891 C406.9448,120.620916 396.205546,120.620916 388.245565,125.888891 L388.245565,125.888891 C380.208568,131.207956 369.365226,131.207956 361.328229,125.888891 L361.328229,125.888891 C353.368248,120.620916 342.628994,120.620916 334.669013,125.888891 L334.669013,125.888891 C326.631824,131.207956 315.788483,131.207956 307.751486,125.888891 L307.751486,125.888891 C299.791505,120.620916 289.052251,120.620916 281.09227,125.888891 L281.09227,125.888891 C273.055272,131.207956 262.211931,131.207956 254.174743,125.888891 L254.174743,125.888891 C246.214762,120.620916 235.475508,120.620916 227.515527,125.888891 C219.478529,131.207956 208.635188,131.207956 200.59819,125.888891 L199.433789,125.118349 C192.169056,120.310374 182.367918,120.310374 175.103375,125.118349 L175.103185,125.118349 C166.37094,130.897604 154.589672,130.897604 145.857237,125.118349 L145.857237,125.118349 C138.592313,120.310374 128.791175,120.310374 121.526632,125.118349 L121.526632,125.118349 C112.794197,130.897604 101.012929,130.897604 92.2804939,125.118349 L92.2804939,125.118349 C85.0157603,120.310374 75.2144321,120.310374 67.9498892,125.118349 L67.9498892,125.118349 C59.3663399,130.799237 47.8006812,130.851089 39.1568912,125.247408 L39.1568912,125.247408 C31.606967,120.353076 21.5051975,120.398256 14.0076981,125.360264 C9.82534821,128.128267 4.91629618,129.52485 0,129.546963 L0,362.984735 L2304.99981,362.984735 L2305,129.546963 C2305,129.546963 2297.57246,131.207956 2289.53528,125.888891" id="Page-1-Copy-6" transform="translate(1152.500000, 241.992368) scale(-1, 1) translate(-1152.500000, -241.992368) "></path>
        </g>
    </g>
</svg>